# xmcd CD database file
#
# Track frame offsets:
#	150
#	2122
#	16613
#	39309
#	55973
#	76455
#	89874
#	104573
#	118456
#	134034
#	152880
#	164661
#	175248
#	197262
#
# Disc length: 3188 seconds
#
# Revision: 0
# Processed by: cddbd v1.4PL0 Copyright (c) Steve Scherf et al.
# Submitted via: Feurio! 1.65 - http://www.feurio.com
#
DISCID=c00c720e
DTITLE=South Mountain - We're Back
DYEAR=2002
DGENRE=country
TTITLE0=Intro
TTITLE1=Second Fiddle
TTITLE2=Midnight Train
TTITLE3=Ramblin'
TTITLE4=Tennessee Waltz
TTITLE5=Crazy Arms
TTITLE6=Draggin' The Bow
TTITLE7=The Kentuckian Song
TTITLE8=Whooper Snooper
TTITLE9=Love You A Thousand Ways
TTITLE10=I Wish You Knew
TTITLE11=It Makes No Difference Now
TTITLE12=Go Rest High On That Mountain
TTITLE13=Ghost Riders In The Sky
EXTD=
EXTT0=
EXTT1=
EXTT2=
EXTT3=
EXTT4=
EXTT5=
EXTT6=
EXTT7=
EXTT8=
EXTT9=
EXTT10=
EXTT11=
EXTT12=
EXTT13=
PLAYORDER=
